<?xml version="1.0" encoding="utf-8"?>
<!-- Generator: Adobe Illustrator 25.0.0, SVG Export Plug-In . SVG Version: 6.00 Build 0)  -->
<svg version="1.1" id="图层_1" xmlns="http://www.w3.org/2000/svg" xmlns:xlink="http://www.w3.org/1999/xlink" x="0px" y="0px"
	 viewBox="0 0 36 36" style="enable-background:new 0 0 36 36;" xml:space="preserve">
<style type="text/css">
	.st0{fill:#FFFFFF;}
</style>
<path class="st0" d="M8.7,27.6h3.2c0.2,0,0.3-0.1,0.3-0.3V8.7c0-0.2-0.1-0.3-0.3-0.3H8.7c-0.2,0-0.3,0.1-0.3,0.3v18.6
	C8.4,27.5,8.5,27.6,8.7,27.6z M16.4,16.4h3.2c0.2,0,0.3-0.1,0.3-0.3V8.7c0-0.2-0.1-0.3-0.3-0.3h-3.2c-0.2,0-0.3,0.1-0.3,0.3v7.4
	C16.1,16.3,16.2,16.4,16.4,16.4z M24.1,19.3h3.2c0.2,0,0.3-0.1,0.3-0.3V8.7c0-0.2-0.1-0.3-0.3-0.3h-3.2c-0.2,0-0.3,0.1-0.3,0.3V19
	C23.8,19.1,23.9,19.3,24.1,19.3z M32.8,1.9H3.2c-0.7,0-1.3,0.6-1.3,1.3v29.6c0,0.7,0.6,1.3,1.3,1.3h29.6c0.7,0,1.3-0.6,1.3-1.3V3.2
	C34.1,2.5,33.5,1.9,32.8,1.9z M31.2,31.2H4.8V4.8h26.4V31.2z"/>
</svg>
