<?xml version="1.0" encoding="utf-8"?>
<!-- Generator: Adobe Illustrator 25.0.0, SVG Export Plug-In . SVG Version: 6.00 Build 0)  -->
<svg version="1.1" id="图层_1" xmlns="http://www.w3.org/2000/svg" xmlns:xlink="http://www.w3.org/1999/xlink" x="0px" y="0px"
	 viewBox="0 0 36 36" style="enable-background:new 0 0 36 36;" xml:space="preserve">
<style type="text/css">
	.st0{fill:#FFFFFF;fill-opacity:0.85;}
</style>
<path class="st0" d="M23.2,14.7h10.3c0.3,0,0.6-0.3,0.6-0.6V3.8c0-0.3-0.3-0.6-0.6-0.6H23.2c-0.3,0-0.6,0.3-0.6,0.6v3.7h-5.5
	c-0.2,0-0.3,0.1-0.3,0.3v8.9h-3.4v-3.9c0-0.3-0.3-0.6-0.6-0.6H2.5c-0.3,0-0.6,0.3-0.6,0.6v10.3c0,0.3,0.3,0.6,0.6,0.6h10.3
	c0.3,0,0.6-0.3,0.6-0.6v-3.9h3.4v8.9c0,0.2,0.1,0.3,0.3,0.3h5.5v3.7c0,0.3,0.3,0.6,0.6,0.6h10.3c0.3,0,0.6-0.3,0.6-0.6V21.9
	c0-0.3-0.3-0.6-0.6-0.6H23.2c-0.3,0-0.6,0.3-0.6,0.6v4h-3.2V10.1h3.2v4C22.6,14.4,22.9,14.7,23.2,14.7z M25.3,5.9h6v6h-6V5.9z
	 M10.7,21h-6v-6h6V21z M25.3,24h6v6h-6V24z"/>
</svg>
