<?xml version="1.0" encoding="utf-8"?>
<!-- Generator: Adobe Illustrator 25.0.0, SVG Export Plug-In . SVG Version: 6.00 Build 0)  -->
<svg version="1.1" id="图层_1" xmlns="http://www.w3.org/2000/svg" xmlns:xlink="http://www.w3.org/1999/xlink" x="0px" y="0px"
	 viewBox="0 0 36 36" style="enable-background:new 0 0 36 36;" xml:space="preserve">
<style type="text/css">
	.st0{fill:#FFFFFF;}
</style>
<path class="st0" d="M30.5,25.6c-1-1-2.2-1.8-3.5-2.4c1.8-1.5,3-3.7,3-6.2c0-4.5-3.7-8.1-8.2-8c-4.4,0.1-7.9,3.6-7.9,8
	c0,2.5,1.2,4.8,3,6.2c-1.3,0.6-2.5,1.4-3.5,2.4c-2.2,2.2-3.4,5.1-3.5,8.2c0,0,0,0.1,0,0.1c0,0,0,0.1,0.1,0.1c0,0,0.1,0.1,0.1,0.1
	c0,0,0.1,0,0.1,0h2.2c0.2,0,0.3-0.1,0.3-0.3c0.1-2.3,1-4.5,2.7-6.2c0.8-0.9,1.9-1.5,3-2c1.1-0.5,2.3-0.7,3.5-0.7
	c2.4,0,4.7,1,6.5,2.7c1.7,1.7,2.6,3.8,2.7,6.2c0,0.2,0.1,0.3,0.3,0.3h2.3c0,0,0.1,0,0.1,0c0,0,0.1,0,0.1-0.1c0,0,0.1-0.1,0.1-0.1
	c0,0,0-0.1,0-0.1C34,30.7,32.7,27.8,30.5,25.6z M22,22c-1.4,0-2.7-0.5-3.6-1.5c-0.5-0.5-0.9-1.1-1.1-1.7c-0.3-0.6-0.4-1.3-0.4-2
	c0-1.3,0.5-2.6,1.5-3.5c1-1,2.3-1.5,3.6-1.6c1.4,0,2.7,0.5,3.7,1.5c1,1,1.5,2.3,1.5,3.7c0,1.4-0.5,2.7-1.5,3.6
	c-0.5,0.5-1,0.9-1.7,1.1C23.4,21.9,22.7,22,22,22z M12,17.9c0-0.3-0.1-0.7-0.1-1.1c0-0.6,0.1-1.3,0.2-1.9c0-0.1,0-0.3-0.2-0.4
	c-0.5-0.2-1-0.6-1.5-1c-0.5-0.5-0.9-1.1-1.2-1.8C9,11.2,8.8,10.5,8.9,9.8c0-1.3,0.6-2.5,1.5-3.4c1-1,2.3-1.6,3.7-1.6
	c1.3,0,2.5,0.5,3.5,1.4c0.3,0.3,0.6,0.6,0.8,1c0.1,0.1,0.2,0.2,0.4,0.1c0.7-0.2,1.5-0.4,2.2-0.5c0.2,0,0.4-0.3,0.3-0.5
	c-1.3-2.6-4-4.4-7.1-4.4C9.7,1.9,6,5.5,6,10c0,2.5,1.2,4.8,3,6.2c-1.3,0.6-2.5,1.4-3.5,2.4c-2.2,2.2-3.4,5.1-3.5,8.2
	c0,0,0,0.1,0,0.1C2,27,2,27,2,27.1c0,0,0.1,0.1,0.1,0.1c0,0,0.1,0,0.1,0h2.3c0.2,0,0.3-0.1,0.3-0.3c0.1-2.3,1-4.5,2.7-6.2
	c1.2-1.2,2.6-2,4.2-2.4C11.9,18.3,12,18.1,12,17.9z"/>
</svg>
