<?xml version="1.0" encoding="utf-8"?>
<!-- Generator: Adobe Illustrator 25.0.0, SVG Export Plug-In . SVG Version: 6.00 Build 0)  -->
<svg version="1.1" id="图层_1" xmlns="http://www.w3.org/2000/svg" xmlns:xlink="http://www.w3.org/1999/xlink" x="0px" y="0px"
	 viewBox="0 0 36 36" style="enable-background:new 0 0 36 36;" xml:space="preserve">
<style type="text/css">
	.st0{fill:#FFFFFF;}
</style>
<g>
	<g>
		<path class="st0" d="M30.9,0H5.1C4.4,0,3.9,0.6,3.9,1.3v33.4c0,0.7,0.6,1.3,1.3,1.3h25.7c0.7,0,1.3-0.6,1.3-1.3V1.3
			C32.1,0.6,31.6,0,30.9,0z M29.2,33.1H6.7V25h3.9c0.5,1.3,1.3,2.5,2.4,3.4c1.4,1.1,3.1,1.8,4.9,1.8c1.8,0,3.6-0.6,4.9-1.8
			c1.1-0.9,1.9-2.1,2.4-3.4h3.9v-2.5h-6l-0.2,1c-0.5,2.4-2.6,4.2-5.1,4.2s-4.6-1.7-5.1-4.2l-0.2-1h-6V2.9h22.5V33.1z M10.3,11.1
			h15.4c0.2,0,0.3-0.1,0.3-0.3V8.9c0-0.2-0.1-0.3-0.3-0.3H10.3c-0.2,0-0.3,0.1-0.3,0.3v1.9C10,11,10.1,11.1,10.3,11.1z M10.3,17.6
			h15.4c0.2,0,0.3-0.1,0.3-0.3v-1.9c0-0.2-0.1-0.3-0.3-0.3H10.3c-0.2,0-0.3,0.1-0.3,0.3v1.9C10,17.4,10.1,17.6,10.3,17.6z"/>
	</g>
</g>
</svg>
