<?xml version="1.0" encoding="utf-8"?>
<!-- Generator: Adobe Illustrator 25.0.0, SVG Export Plug-In . SVG Version: 6.00 Build 0)  -->
<svg version="1.1" id="图层_1" xmlns="http://www.w3.org/2000/svg" xmlns:xlink="http://www.w3.org/1999/xlink" x="0px" y="0px"
	 viewBox="0 0 36 36" style="enable-background:new 0 0 36 36;" xml:space="preserve">
<style type="text/css">
	.st0{fill:#FFFFFF;}
</style>
<path class="st0" d="M34.1,30.4V5.6C35.2,5.2,36,4.2,36,2.9C36,1.3,34.7,0,33.1,0c-1.3,0-2.3,0.8-2.7,1.9H5.6C5.2,0.8,4.2,0,2.9,0
	C1.3,0,0,1.3,0,2.9c0,1.3,0.8,2.3,1.9,2.7v24.8C0.8,30.8,0,31.8,0,33.1C0,34.7,1.3,36,2.9,36c1.3,0,2.3-0.8,2.7-1.9h24.8
	c0.4,1.1,1.5,1.9,2.7,1.9c1.6,0,2.9-1.3,2.9-2.9C36,31.8,35.2,30.8,34.1,30.4z M33.1,1.9c0.5,0,1,0.4,1,1c0,0.5-0.4,1-1,1
	c-0.5,0-1-0.4-1-1C32.1,2.4,32.6,1.9,33.1,1.9z M2.9,34.1c-0.5,0-1-0.4-1-1c0-0.5,0.4-1,1-1c0.5,0,1,0.4,1,1
	C3.9,33.6,3.4,34.1,2.9,34.1z M2.9,3.9c-0.5,0-1-0.4-1-1c0-0.5,0.4-1,1-1c0.5,0,1,0.4,1,1C3.9,3.4,3.4,3.9,2.9,3.9z M31.2,31.2H4.8
	V4.8h26.4V31.2z M33.1,34.1c-0.5,0-1-0.4-1-1c0-0.5,0.4-1,1-1c0.5,0,1,0.4,1,1C34.1,33.6,33.6,34.1,33.1,34.1z"/>
<path class="st0" d="M9,16.5h18c0.4,0,0.6-0.3,0.6-0.6V8.8c0-0.4-0.3-0.6-0.6-0.6H9c-0.4,0-0.6,0.3-0.6,0.6v7.1
	C8.4,16.2,8.6,16.5,9,16.5z M11.2,11h13.5v2.6H11.2V11z M9,27.9h18c0.4,0,0.6-0.3,0.6-0.6v-7.1c0-0.4-0.3-0.6-0.6-0.6H9
	c-0.4,0-0.6,0.3-0.6,0.6v7.1C8.4,27.6,8.6,27.9,9,27.9z M11.2,22.4h13.5V25H11.2V22.4z"/>
</svg>
