<?xml version="1.0" encoding="utf-8"?>
<!-- Generator: Adobe Illustrator 25.0.0, SVG Export Plug-In . SVG Version: 6.00 Build 0)  -->
<svg version="1.1" id="图层_1" xmlns="http://www.w3.org/2000/svg" xmlns:xlink="http://www.w3.org/1999/xlink" x="0px" y="0px"
	 viewBox="0 0 36 36" style="enable-background:new 0 0 36 36;" xml:space="preserve">
<style type="text/css">
	.st0{fill:#FFFFFF;}
</style>
<path class="st0" d="M25.1,10V8c0-0.2-0.1-0.3-0.3-0.3H9.3C9.1,7.7,9,7.9,9,8V10c0,0.2,0.1,0.3,0.3,0.3h15.4
	C24.9,10.3,25.1,10.1,25.1,10z M9.3,13.5c-0.2,0-0.3,0.1-0.3,0.3v1.9c0,0.2,0.1,0.3,0.3,0.3h7.4c0.2,0,0.3-0.1,0.3-0.3v-1.9
	c0-0.2-0.1-0.3-0.3-0.3H9.3z M15.1,31.7H5.8V3.4h22.5v13.8c0,0.2,0.1,0.3,0.3,0.3h2.2c0.2,0,0.3-0.1,0.3-0.3V1.8
	c0-0.7-0.6-1.3-1.3-1.3H4.2C3.5,0.5,2.9,1,2.9,1.8v31.5c0,0.7,0.6,1.3,1.3,1.3h10.9c0.2,0,0.3-0.1,0.3-0.3V32
	C15.4,31.8,15.3,31.7,15.1,31.7z M33,33.7L29.3,30c0.9-1.2,1.4-2.7,1.4-4.3c0-3.9-3.2-7.1-7.1-7.1c-3.9,0-7.1,3.2-7.1,7.1
	c0,3.9,3.2,7.1,7.1,7.1c1.4,0,2.8-0.4,3.9-1.2l3.8,3.8c0.1,0.1,0.1,0.1,0.2,0.1c0.1,0,0.2,0,0.2-0.1l1.2-1.2c0,0,0.1-0.1,0.1-0.1
	c0,0,0-0.1,0-0.1c0,0,0-0.1,0-0.1C33.1,33.8,33,33.8,33,33.7z M23.6,30.2c-2.5,0-4.5-2-4.5-4.5c0-2.5,2-4.5,4.5-4.5
	c2.5,0,4.5,2,4.5,4.5C28.1,28.2,26.1,30.2,23.6,30.2z"/>
</svg>
